<svg width="29" height="30" viewBox="0 0 29 30" fill="none" xmlns="http://www.w3.org/2000/svg">
<path fill-rule="evenodd" clip-rule="evenodd" d="M8.65909 28.6425C3.75713 26.2725 0.349243 21.0525 0.349243 15C0.349243 6.72125 6.7251 0 14.5784 0C22.4318 0 28.8076 6.72125 28.8076 15C28.8076 20.5487 25.944 25.3975 21.6907 27.9925C21.693 21.245 21.6954 11.9812 21.6883 10.8862C21.6847 10.3712 21.3326 10 20.8903 10C19.3523 10 17.078 16.4625 16.2859 23.75C17.5654 23.7463 18.7239 23.75 18.7239 23.75V29.3525C17.4112 29.7738 16.0203 30 14.5784 30C13.5682 30 12.5828 29.8888 11.633 29.6775V22.0575C11.633 21.3263 12.0599 21.1012 12.9978 20.3187C13.7021 19.7312 14.2025 18.8037 14.1065 17.865C13.8326 15.2137 13.1662 10 13.1662 10H12.6231V16.25H11.633L11.4362 10H10.88L10.6417 16.25H9.65039L9.47964 10H8.87964L8.65909 16.25H7.66779V10H7.07491C7.07491 10 6.47135 15.2475 6.22353 17.89C6.13578 18.8162 6.61009 19.7262 7.29902 20.3088C8.23221 21.0963 8.65909 21.3325 8.65909 22.0525V28.6425Z" fill="white"/>
</svg>
