<svg width="34" height="35" viewBox="0 0 34 35" fill="none" xmlns="http://www.w3.org/2000/svg">
<path d="M7.28711 10.2083C11.1066 10.2083 14.2041 13.4735 14.2041 17.5C14.2041 21.5265 11.1066 24.7917 7.28711 24.7917C3.46758 24.7917 0.370178 21.5265 0.370178 17.5C0.370178 13.4735 3.46758 10.2083 7.28711 10.2083ZM22.6731 27.8031C22.5722 28.2421 22.5044 28.6942 22.5044 29.1667C22.5044 32.3881 24.982 35 28.0379 35C31.0938 35 33.5715 32.3881 33.5715 29.1667C33.5715 25.9452 31.0938 23.3333 28.0379 23.3333C26.4263 23.3333 24.9889 24.0713 23.9777 25.2306L16.3857 20.9621C16.0675 21.8896 15.6262 22.7544 15.0811 23.5346L22.6731 27.8031ZM33.5715 5.83333C33.5715 2.61187 31.0938 0 28.0379 0C24.982 0 22.5044 2.61187 22.5044 5.83333C22.5044 6.30583 22.5722 6.75792 22.6731 7.19688L15.0811 11.4654C15.6276 12.2456 16.0675 13.109 16.3857 14.0379L23.9777 9.76937C24.9889 10.9288 26.4263 11.6667 28.0379 11.6667C31.0938 11.6667 33.5715 9.05479 33.5715 5.83333Z" fill="white"/>
</svg>
